<svg xmlns="http://www.w3.org/2000/svg" viewBox="0 0 500 500"><defs><style>.cls-1{fill:#fff;}.cls-2{font-size:103.01px;font-family:OrelegaOne-Regular, OrelegaOne Regular;}.cls-16,.cls-2{fill:#221b49;}.cls-3{letter-spacing:0em;}.cls-4{letter-spacing:0em;}.cls-5{letter-spacing:-0.01em;}.cls-6{font-size:20.13px;font-family:ArialRoundedMTBold, Arial Rounded MT Bold;letter-spacing:0.05em;}.cls-6,.cls-9{fill:#6c9cef;}.cls-7{letter-spacing:0.03em;}.cls-8{letter-spacing:0.04em;}.cls-10{fill:#e4fbef;}.cls-11{fill:#d3effb;}.cls-12{fill:#f1d59d;}.cls-13{fill:#ffe07d;}.cls-14{fill:#ffc250;}.cls-15{fill:#ffd064;}</style></defs><g id="Layer_2" data-name="Layer 2"><g id="PRINT"><rect id="CUSTOM-background" class="cls-1" width="500" height="500"/><g id="CUSTOM-group"><text class="cls-2" transform="translate(77.2 319.58)"><tspan class="cls-3">E</tspan><tspan x="50.27" y="0">duc</tspan><tspan class="cls-4" x="211.28" y="0">a</tspan><tspan class="cls-5" x="260.52" y="0">t</tspan><tspan x="293.99" y="0">e</tspan></text><text class="cls-6" transform="translate(124.04 349.99)">Ext<tspan class="cls-7" x="34.06" y="0">r</tspan><tspan x="43.39" y="0">acu</tspan><tspan class="cls-8" x="82.49" y="0">r</tspan><tspan x="92.05" y="0">ricular Classes</tspan></text><g id="CUSTOM-group-2" data-name="CUSTOM-group"><path class="cls-9" d="M328.63,253.9c-.53,0-1.07,0-1.61,0h-.11a2.72,2.72,0,0,1,.39-5.43,24.67,24.67,0,0,0,6.47-.49,2.72,2.72,0,1,1,1.13,5.32A30.18,30.18,0,0,1,328.63,253.9Zm-10.34-1.8a2.85,2.85,0,0,1-.91-.15,37,37,0,0,1-7-3.39,2.72,2.72,0,0,1,2.86-4.63,31.75,31.75,0,0,0,6,2.89,2.72,2.72,0,0,1-.91,5.28ZM342.7,250a2.72,2.72,0,0,1-1.41-5,29.37,29.37,0,0,0,5.2-4.09,2.72,2.72,0,0,1,3.81,3.89,34,34,0,0,1-6.19,4.84A2.7,2.7,0,0,1,342.7,250Zm-99.7-.34c-1.66,0-3.34-.07-5-.2a2.72,2.72,0,0,1,.44-5.43,54.86,54.86,0,0,0,6.91.14,2.72,2.72,0,0,1,.23,5.44C244.71,249.61,243.85,249.62,243,249.62Zm11.44-1.16a2.72,2.72,0,0,1-.54-5.38,56.09,56.09,0,0,0,6.66-1.81,2.72,2.72,0,1,1,1.76,5.15,63.6,63.6,0,0,1-7.33,2A2.56,2.56,0,0,1,254.44,248.46ZM229.26,248a3.27,3.27,0,0,1-.62-.07,71.13,71.13,0,0,1-7.25-2.12,2.72,2.72,0,1,1,1.81-5.13,64.86,64.86,0,0,0,6.67,2,2.72,2.72,0,0,1-.61,5.37Zm161.42-3h-.14a47.52,47.52,0,0,1-7.63-1,2.72,2.72,0,1,1,1.19-5.31,40.89,40.89,0,0,0,6.72.91,2.72,2.72,0,0,1-.14,5.43Zm-86-1.62a2.74,2.74,0,0,1-1.9-.76,56.13,56.13,0,0,1-5.08-5.68,2.72,2.72,0,1,1,4.28-3.35,50.94,50.94,0,0,0,4.59,5.12,2.72,2.72,0,0,1-1.89,4.67ZM269.78,243a2.72,2.72,0,0,1-1.25-5.14c.81-.42,1.64-.86,2.45-1.33,1.21-.69,2.41-1.42,3.56-2.18a2.72,2.72,0,1,1,3,4.54c-1.25.83-2.55,1.62-3.85,2.37-.88.5-1.78,1-2.66,1.44A2.76,2.76,0,0,1,269.78,243ZM214,242.4a2.64,2.64,0,0,1-1.24-.3,51.19,51.19,0,0,1-6.62-3.95,2.72,2.72,0,0,1,3.24-4.37h0a47.87,47.87,0,0,0,5.86,3.48A2.72,2.72,0,0,1,214,242.4Zm161-1.34a2.61,2.61,0,0,1-1.18-.27,42.2,42.2,0,0,1-6.63-4,2.72,2.72,0,1,1,3.21-4.39,37,37,0,0,0,5.78,3.47,2.72,2.72,0,0,1-1.18,5.17Zm-20.87-2.58a2.72,2.72,0,0,1-2.27-4.21,52.18,52.18,0,0,0,3.38-6,2.71,2.71,0,0,1,1.93-1.49c-.6-.82-1.18-1.65-1.74-2.51a2.72,2.72,0,0,1,3.06-4.09c.72-2.19,1.35-4.46,1.87-6.75a2.72,2.72,0,0,1,5.31,1.22c-.57,2.46-1.25,4.89-2,7.24a2.72,2.72,0,0,1-2,1.8c.79,1.06,1.62,2.07,2.47,3a2.72,2.72,0,0,1-3.92,3.76,1,1,0,0,1-.07.15,58.28,58.28,0,0,1-3.73,6.63A2.71,2.71,0,0,1,354.1,238.48Zm-70.85-4.6a2.72,2.72,0,0,1-1.79-4.77,61.57,61.57,0,0,0,5-4.86,2.71,2.71,0,0,1,3.05-.68c-.18-.38-.36-.76-.53-1.14a2.72,2.72,0,0,1,1.33-3.61,2.65,2.65,0,0,1,1.06-.25,2.85,2.85,0,0,1,.43-1.13,52.83,52.83,0,0,0,3.48-6,2.72,2.72,0,1,1,4.87,2.43,61.11,61.11,0,0,1-3.82,6.56,2.73,2.73,0,0,1-1.71,1.15c.79,1.63,1.64,3.23,2.52,4.75a2.72,2.72,0,1,1-4.7,2.73q-.67-1.15-1.32-2.37a2.77,2.77,0,0,1-.64,1.19,65.73,65.73,0,0,1-5.4,5.28A2.72,2.72,0,0,1,283.25,233.88Zm70.11-16.36a2.71,2.71,0,0,1-2.49-1.62,61.29,61.29,0,0,1-2.63-7.12,2.72,2.72,0,1,1,5.21-1.56,54.83,54.83,0,0,0,2.4,6.49,2.72,2.72,0,0,1-1.4,3.58A2.64,2.64,0,0,1,353.36,217.52Zm-65.3-1.93a2.72,2.72,0,0,1-2.58-1.85c-.81-2.39-1.51-4.81-2.09-7.2a2.72,2.72,0,1,1,5.28-1.29c.55,2.24,1.21,4.51,2,6.75a2.72,2.72,0,0,1-1.7,3.45A3,3,0,0,1,288.06,215.59Zm76.47-7.78h-.32a2.73,2.73,0,0,1-2.39-3c.27-2.38.43-4.72.46-7a2.71,2.71,0,0,1,2.72-2.68h0a2.72,2.72,0,0,1,2.69,2.76c0,2.42-.2,5-.49,7.51A2.72,2.72,0,0,1,364.53,207.81ZM301,207a2.85,2.85,0,0,1-.76-.11,2.72,2.72,0,0,1-1.85-3.38,39.27,39.27,0,0,0,1.36-6.63,2.72,2.72,0,1,1,5.41.6,45,45,0,0,1-1.55,7.56A2.72,2.72,0,0,1,301,207Zm47.93-5.13a2.71,2.71,0,0,1-2.69-2.37,49.65,49.65,0,0,1-.44-6.43c0-.42,0-.84,0-1.25a2.72,2.72,0,0,1,2.71-2.64h.09a2.72,2.72,0,0,1,2.64,2.8c0,.35,0,.71,0,1.08a44,44,0,0,0,.39,5.72,2.72,2.72,0,0,1-2.34,3.05Zm-64.52-2.17a2.71,2.71,0,0,1-2.69-2.41,54.82,54.82,0,0,1-.38-6.22c0-.49,0-1,0-1.42a2.76,2.76,0,0,1,2.8-2.64,2.72,2.72,0,0,1,2.63,2.81c0,.41,0,.83,0,1.25a50.86,50.86,0,0,0,.34,5.6,2.71,2.71,0,0,1-2.39,3Zm80-8.16a2.72,2.72,0,0,1-2.68-2.27,21.21,21.21,0,0,0-1.84-6.11,2.72,2.72,0,0,1,4.83-2.5,26.37,26.37,0,0,1,2.38,7.71,2.73,2.73,0,0,1-2.24,3.14A3.4,3.4,0,0,1,364.38,191.53Zm-62.22-.67a2.71,2.71,0,0,1-2.66-2.17,13.5,13.5,0,0,0-2.34-5.51,2.72,2.72,0,1,1,4.33-3.3,19,19,0,0,1,3.34,7.71,2.74,2.74,0,0,1-2.12,3.22A3.51,3.51,0,0,1,302.16,190.86Zm48-5.11a2.73,2.73,0,0,1-2.51-3.77c1.84-4.42,4.59-6,6.58-6.63a2.72,2.72,0,0,1,1.54,5.22c-1.54.45-2.54,2.15-3.1,3.5A2.71,2.71,0,0,1,350.18,185.75Zm-64.28-2.12a2.8,2.8,0,0,1-1.22-.29,2.73,2.73,0,0,1-1.2-3.66c1.68-3.32,4.4-5.14,7.66-5.14l.71,0a2.72,2.72,0,1,1-.43,5.42h-.27c-.81,0-1.85.25-2.82,2.16A2.72,2.72,0,0,1,285.9,183.63Z"/><path class="cls-9" d="M198,236.63l5.29,2.7a5.9,5.9,0,0,0,7.94-8l-2.7-5.28Z"/><path class="cls-10" d="M127.44,131.27l-24.29,24.3-6.48-6.48L121,124.8Z"/><path class="cls-11" d="M107.6,151.12l-4.45,4.45-6.48-6.48,4.45-4.45Z"/><path class="cls-12" d="M177.65,230.1l20.3,6.53,5.26-5.27,5.27-5.26L202,205.8,189.8,218Z"/><path class="cls-9" d="M89,141.41a8.6,8.6,0,0,1,0-12.15l12.15-12.15a8.6,8.6,0,0,1,12.15,0l7.7,7.7-24.3,24.3Z"/><path class="cls-13" d="M119.34,139.39,195,215.07a2.26,2.26,0,0,1,2-.64l3.4.56a2.28,2.28,0,0,0,2.63-2.63L202,205.8l-74.51-74.51Z"/><path class="cls-14" d="M103.14,155.59l74.51,74.51,6.56,1.09a2.28,2.28,0,0,0,2.63-2.63l-.56-3.4a2.25,2.25,0,0,1,.64-2l-75.68-75.68Z"/><path class="cls-15" d="M111.24,147.49l75.68,75.68a2.26,2.26,0,0,1,2-.64l3.4.56a2.28,2.28,0,0,0,2.63-2.63l-.56-3.4a2.25,2.25,0,0,1,.64-2l-75.68-75.68Z"/><path class="cls-16" d="M87.63,127.92a10.5,10.5,0,0,0,0,14.83l36.45,36.45a1.89,1.89,0,1,0,2.68-2.67l-21-20.94,5.43-5.43,73.32,73.33a4.27,4.27,0,0,0-.15,2l.57,3.4a.41.41,0,0,1-.11.34.42.42,0,0,1-.35.12l-6-1L133,182.77a1.89,1.89,0,0,0-2.68,2.67l46,46a2,2,0,0,0,.76.46h0l20.15,6.48,5.16,2.63a7.8,7.8,0,0,0,10.49-10.49l-2.64-5.15-6.48-20.15h0a2,2,0,0,0-.46-.76l-29.53-29.52a1.89,1.89,0,0,0-2.67,2.67l29.09,29.1,1,6a.36.36,0,0,1-.12.34.37.37,0,0,1-.34.12l-3.4-.57a4.27,4.27,0,0,0-2,.15L122,139.39l5.43-5.43,37.4,37.41a1.9,1.9,0,0,0,2.68-2.68L114.6,115.77a10.48,10.48,0,0,0-14.82,0L87.63,127.92ZM200.1,216.86a4.16,4.16,0,0,0,3.17-.77l3,9.49-8.89,8.89-9.49-3.05a4.18,4.18,0,0,0,.77-3.18l-.57-3.39a.42.42,0,0,1,.46-.46l3.4.57a4.19,4.19,0,0,0,4.81-4.82l-.57-3.39a.41.41,0,0,1,.11-.34.42.42,0,0,1,.35-.12l3.4.57Zm1,19.27,6.85-6.86,1.52,3a4,4,0,0,1-5.4,5.39Zm-87.22-88.64,5.43-5.43,73.32,73.33a4.27,4.27,0,0,0-.15,2l.57,3.4a.4.4,0,0,1-.46.46l-3.4-.57a4.27,4.27,0,0,0-2,.15Zm-10.77,5.42-3.81-3.8L121,127.48l3.8,3.81ZM90.3,130.6l12.15-12.15a6.71,6.71,0,0,1,9.47,0l6.36,6.36L96.66,146.43l-6.36-6.36A6.71,6.71,0,0,1,90.3,130.6Z"/><circle class="cls-9" cx="400.92" cy="242.62" r="2.93"/></g></g></g></g></svg>